<?xml version="1.0" encoding="UTF-8"?>
<svg xmlns="http://www.w3.org/2000/svg" xmlns:xlink="http://www.w3.org/1999/xlink" width="24px" height="24px" viewBox="0 0 24 24" version="1.1">
<g id="surface1">
<path style=" stroke:none;fill-rule:nonzero;fill:rgb(0%,0%,0%);fill-opacity:1;" d="M 1.328125 12.398438 L 4.886719 15 L 3.535156 19.1875 C 3.085938 20.519531 3.566406 21.992188 4.71875 22.800781 C 5.851562 23.636719 7.394531 23.628906 8.519531 22.78125 L 12 20.21875 L 15.480469 22.777344 C 16.609375 23.609375 18.144531 23.617188 19.28125 22.796875 C 20.417969 21.976562 20.894531 20.519531 20.464844 19.1875 L 19.113281 15 L 22.671875 12.398438 C 23.800781 11.578125 24.269531 10.121094 23.835938 8.796875 C 23.40625 7.46875 22.167969 6.570312 20.773438 6.566406 L 16.398438 6.566406 L 15.074219 2.433594 C 14.644531 1.097656 13.402344 0.191406 12 0.191406 C 10.597656 0.191406 9.355469 1.097656 8.925781 2.433594 L 7.601562 6.566406 L 3.230469 6.566406 C 1.835938 6.570312 0.597656 7.46875 0.167969 8.796875 C -0.265625 10.121094 0.203125 11.578125 1.332031 12.398438 Z M 1.328125 12.398438 "/>
</g>
</svg>
